<?xml version="1.0" encoding="UTF-8"?>
<svg width="530px" height="229px" viewBox="0 0 530 229" version="1.1" xmlns="http://www.w3.org/2000/svg" xmlns:xlink="http://www.w3.org/1999/xlink">
    <title>logo-technische-universität-dresden-regular</title>
    <g id="logo-technische-universität-dresden-regular" stroke="none" stroke-width="1" fill="none" fill-rule="evenodd">
        <rect id="Rectangle" x="0" y="0" width="530" height="229"></rect>
        <g id="tu" transform="translate(62.000000, 52.000000)" fill="#8C734B">
            <path d="M232.507104,84.7625994 C236.729468,84.7625994 239.880112,85.7231925 242.575624,88.1568993 L242.843681,88.4051994 L238.824666,92.2817993 C236.870213,90.4585494 234.343582,90.1153494 232.275087,90.1153494 C228.944259,90.1153494 227.335866,91.9385993 227.335866,94.1050493 C227.335866,94.9006493 227.563951,95.8132493 228.254105,96.3826493 C228.894962,96.9095672 229.832512,97.4398478 230.975447,97.6050293 L231.242805,97.6364993 L235.033735,98.2058993 C237.906427,98.6602493 239.742904,99.4558493 241.121246,100.711649 C242.845647,102.306749 243.649843,104.584349 243.649843,107.433299 C243.649843,113.583599 238.480572,117.001949 231.702908,117.000001 C227.019647,117.000001 223.419976,116.035584 220.375337,113.060161 L220.100066,112.784099 L224.121048,108.798299 C226.073534,110.849699 228.830216,111.532199 231.81695,111.532199 C235.493838,111.532199 237.446324,110.167199 237.446324,107.546399 C237.446324,106.407599 237.216273,105.494999 236.526119,104.925599 C235.880943,104.391787 235.234039,104.058497 233.92601,103.830931 L233.655394,103.786799 L229.864464,103.217399 C227.107781,102.874199 225.039286,101.961599 223.546903,100.596599 C222.054519,99.1165493 221.364365,97.0651493 221.364365,94.3292993 C221.364365,88.7483994 225.499389,84.7625994 232.507104,84.7625994 Z M178.403767,84.9926994 C184.949414,84.9926994 188.856353,89.4308994 188.856353,94.7875493 C188.856353,99.1232078 186.232502,101.829265 183.223305,103.017988 L182.996927,103.104299 L190.118685,116.777699 L182.882885,116.777699 L176.679366,104.131949 L172.08424,104.131949 L172.08424,116.777699 L165.882687,116.777699 L165.882687,84.9926994 L178.403767,84.9926994 Z M312.574773,84.9907494 L325.209896,104.469299 L325.209896,84.9907494 L331.527457,84.9907494 L331.527457,116.775749 L325.898084,116.775749 L313.262961,97.2952493 L313.262961,116.775749 L306.945399,116.775749 L306.945399,84.9907494 L312.574773,84.9907494 Z M300.625871,84.9907494 L300.625871,90.5735994 L285.808211,90.5735994 L285.808211,97.9777493 L298.443334,97.9777493 L298.443334,103.558649 L285.808211,103.558649 L285.808211,111.190949 L300.625871,111.190949 L300.625871,116.775749 L279.604692,116.775749 L279.604692,84.9907494 L300.625871,84.9907494 Z M147.614257,84.9907494 C150.826127,84.9907494 153.71987,85.8393277 155.775398,87.8389652 L156.000314,88.0658994 C158.565584,90.5297017 159.117177,93.3826603 159.21623,96.5069026 L159.230469,97.1353332 L159.230469,97.1353332 L159.235416,97.7707885 L159.235416,97.7707885 L159.217788,100.378666 L159.217788,100.378666 L159.217788,101.045311 L159.235416,103.382385 L159.235416,103.382385 L159.23365,104.055179 L159.23365,104.055179 L159.22347,104.723104 C159.14884,107.938547 158.670323,110.959683 156.256939,113.44362 L156.000314,113.698649 C154.005694,115.785846 151.157252,116.708967 147.969789,116.772242 L147.614257,116.775749 L136.011416,116.775749 L136.011416,84.9907494 L147.614257,84.9907494 Z M216.65323,84.9907494 L216.65323,90.5735994 L201.721527,90.5735994 L201.721527,97.9777493 L214.35665,97.9777493 L214.35665,103.558649 L201.721527,103.558649 L201.721527,111.190949 L216.65323,111.190949 L216.65323,116.775749 L195.516042,116.775749 L195.516042,84.9907494 L216.65323,84.9907494 Z M261.224186,84.9907494 C264.55698,84.9907494 267.65579,85.9033494 269.724285,88.0658994 C272.314348,90.6331391 272.839681,93.6228968 272.933465,96.9018219 L272.947246,97.5843026 L272.947246,97.5843026 L272.95203,98.6229221 L272.95203,98.6229221 L272.943565,101.05325 L272.95203,103.090108 L272.948181,103.802796 C272.908226,107.472395 272.513381,110.935657 269.724285,113.698649 C267.729665,115.785846 264.77701,116.708967 261.58034,116.772242 L261.224186,116.775749 L249.737353,116.775749 L249.737353,84.9907494 L261.224186,84.9907494 Z M81.9061128,0.345149998 L117.402825,35.6596497 L117.402825,81.4592994 L81.9061128,116.775749 L35.6127212,116.775749 L-5.68434189e-14,81.4592994 L-5.68434189e-14,35.6596497 L35.6127212,0.345149998 L81.9061128,0.345149998 Z M80.4117627,3.87659997 L36.9910625,3.87659997 L3.56087887,37.0265997 L3.56087887,80.0884494 L36.9890962,113.242349 L80.4117627,113.242349 L113.83998,80.0884494 L113.83998,37.0265997 L80.4117627,3.87659997 Z M260.650041,90.5735994 L255.938906,90.5735994 L255.938906,111.190949 L260.650041,111.190949 C262.832579,111.190949 264.324963,110.508449 265.35921,109.256549 C266.049364,108.435209 266.408244,107.286737 266.584923,105.44132 L266.630574,104.894774 L266.630574,104.894774 L266.667082,104.308382 L266.667082,104.308382 L266.695219,103.680227 L266.695219,103.680227 L266.715759,103.008394 L266.715759,103.008394 L266.729473,102.290964 L266.729473,102.290964 L266.737135,101.526021 L266.737135,101.526021 L266.737135,99.9180267 L266.737135,99.9180267 L266.729473,99.175638 L266.729473,99.175638 L266.715759,98.4821931 L266.715759,98.4821931 L266.695219,97.8354019 L266.695219,97.8354019 L266.667082,97.2329744 L266.667082,97.2329744 L266.630574,96.6726205 C266.623749,96.5826071 266.616543,96.4942513 266.60894,96.4075055 L266.558428,95.9059681 C266.373314,94.2960299 266.0165,93.2918993 265.35921,92.5118993 C264.374213,91.3158993 262.973672,90.6398994 260.957163,90.5782304 L260.650041,90.5735994 Z M147.042079,90.5735994 L142.330944,90.5735994 L142.330944,111.190949 L147.042079,111.190949 C149.108608,111.190949 150.602958,110.508449 151.637205,109.256549 C152.358987,108.396098 152.717972,107.176617 152.885069,105.172908 L152.926012,104.606678 L152.926012,104.606678 L152.958211,103.999645 L152.958211,103.999645 L152.982435,103.34989 L152.982435,103.34989 L152.999455,102.655498 L152.999455,102.655498 L153.010043,101.914551 L153.010043,101.914551 L153.015546,100.711649 L153.015546,100.711649 L153.010003,99.5405713 L153.010003,99.5405713 L152.999352,98.8229407 L152.999352,98.8229407 L152.982246,98.1531089 C152.978815,98.0453263 152.975082,97.9394398 152.971034,97.8354019 L152.942812,97.2329744 L152.942812,97.2329744 L152.906226,96.6726205 C152.748971,94.6023121 152.390504,93.4088993 151.637205,92.5118993 C150.65467,91.3188893 149.258667,90.6432826 147.348047,90.5787045 L147.042079,90.5735994 Z M39.1736001,46.2559497 L39.1736001,83.2825494 L78.3452339,83.2825494 L78.3452339,46.2559497 L110.281067,46.2559497 L110.281067,78.7234494 L79.0353877,109.710899 L38.3694038,109.710899 L7.12372399,78.7253994 L7.12372399,46.2559497 L39.1736001,46.2559497 Z M35.6127212,49.7873996 L10.6846029,49.7873996 L10.6846029,77.3584494 L39.8637538,106.179449 L77.6570464,106.179449 L106.720189,77.3584494 L106.834231,49.7873996 L81.9061128,49.7873996 L81.9061128,86.8120494 L35.6127212,86.8120494 L35.6127212,49.7873996 Z M178.055741,90.5735994 L172.082273,90.5735994 L172.082273,98.8903493 L178.055741,98.8903493 C180.812424,98.8903493 182.536825,97.1801993 182.536825,94.7875493 C182.536825,92.3554979 180.912367,90.6747716 178.296281,90.5780092 L178.055741,90.5735994 Z M79.0373539,7.40804995 L110.283034,38.3954997 L110.283034,42.7244997 L74.784355,42.7244997 L74.784355,79.7510994 L42.7344789,79.7510994 L42.7344789,42.7244997 L7.12569024,42.7244997 L7.12569024,38.3954997 L38.37137,7.40804995 L79.0373539,7.40804995 Z M77.6550801,10.9394999 L39.8637538,10.9394999 L11.3727904,39.1930497 L46.2953578,39.1930497 L46.2953578,76.2176995 L71.2234762,76.2176995 L71.2234762,39.1930497 L106.146044,39.1930497 L77.6550801,10.9394999 Z M142.216901,42.7244997 L142.216901,63.3437995 C142.216901,66.9902995 144.399439,69.1567495 147.730266,69.1567495 C150.985553,69.1567495 153.252262,67.089893 153.35593,63.5957965 L153.35964,63.3437995 L153.35964,42.7244997 L159.563159,42.7244997 L159.563159,63.5719495 C159.563159,70.2935995 154.277879,74.7376495 147.730266,74.7376495 C141.286895,74.7376495 136.175319,70.4313911 136.017155,63.8853505 L136.013382,63.5719495 L136.013382,42.7244997 L142.216901,42.7244997 Z M305.795143,42.3812997 C310.016616,42.3812997 313.161402,43.4472672 315.858241,45.8839292 L316.135652,46.1408997 L312.114671,50.0135996 C310.312375,48.2279997 308.116365,47.8962458 306.074103,47.8557724 L305.567058,47.8510497 L305.567058,47.8510497 C302.234264,47.8510497 300.625871,49.6742996 300.625871,51.8387996 C300.625871,52.6343996 300.971931,53.5469996 301.546076,54.1163996 C302.178717,54.6383496 303.098841,55.0652642 304.221633,55.3085256 L304.53281,55.3702496 L308.32374,55.9396496 C311.184143,56.2666808 312.991758,57.0127793 314.250182,58.1779449 L314.411251,58.3322996 C316.135652,59.9273996 316.939848,62.3200496 316.939848,65.0519995 C316.939848,71.2042495 311.770577,74.7376495 305.108922,74.7337559 C300.313064,74.7337559 296.710081,73.7674977 293.665345,70.7937495 L293.390071,70.5178495 L297.411053,66.5320495 C299.479548,68.4664495 302.23623,69.1528495 305.108922,69.1528495 C308.783843,69.1528495 310.850372,67.7839495 310.850372,65.2762495 C310.850372,64.1374495 310.506278,63.2287495 309.81809,62.5423496 C309.315714,62.0458308 308.637204,61.8090886 307.474328,61.6061249 L306.945399,61.5205496 L303.154469,60.9491996 C300.397786,60.4948496 298.329291,59.6972996 296.95095,58.3303496 C295.344524,56.7371996 294.652404,54.6857996 294.652404,52.0649996 C294.652404,46.3690497 298.90147,42.3812997 305.795143,42.3812997 Z M172.428333,42.7244997 L185.063456,62.0918996 L185.063456,42.7244997 L191.381018,42.7244997 L191.381018,74.5094995 L185.75361,74.5094995 L173.116521,54.9139496 L173.116521,74.5094995 L166.798959,74.5094995 L166.798959,42.7244997 L172.428333,42.7244997 Z M205.166397,42.7244997 L205.166397,74.5094995 L198.848835,74.5094995 L198.848835,42.7244997 L205.166397,42.7244997 Z M215.734991,42.7244997 L222.168561,63.3418495 L228.600165,42.7244997 L235.147778,42.7244997 L224.465141,74.5094995 L219.871981,74.5094995 L209.303387,42.7244997 L215.734991,42.7244997 Z M406.887924,42.7244997 L406.887924,48.1922997 L398.501867,48.1922997 L398.501867,74.5094995 L392.296382,74.5094995 L392.296382,48.1922997 L383.912292,48.1922997 L383.912292,42.7244997 L406.887924,42.7244997 Z M329.230877,42.7244997 L329.230877,74.5094995 L323.027358,74.5094995 L323.027358,42.7244997 L329.230877,42.7244997 Z M373.115613,42.7244997 L384.830531,74.5094995 L378.28685,74.5094995 L376.448406,68.8135495 L365.075616,68.8135495 L363.121164,74.5094995 L356.573551,74.5094995 L368.288469,42.7244997 L373.115613,42.7244997 Z M279.146556,42.7225497 C285.696135,42.7225497 289.487065,47.1665997 289.487065,52.4062496 C289.487065,56.7419081 286.971762,59.5593275 283.967859,60.6466478 L283.741682,60.7249496 L290.862,74.507 L283.625673,74.5075495 L277.308112,61.7467496 L272.828994,61.7467496 L272.828994,74.5075495 L266.625475,74.5075495 L266.625475,42.7225497 L279.146556,42.7225497 Z M260.305948,42.7244997 L260.305948,48.1922997 L245.488287,48.1922997 L245.488287,55.7114996 L258.12341,55.7114996 L258.12341,61.1792996 L245.488287,61.1792996 L245.488287,68.9266495 L260.305948,68.9266495 L260.305948,74.3944495 L239.284768,74.3944495 L239.284768,42.7244997 L260.305948,42.7244997 Z M357.603866,42.7244997 L357.603866,48.1922997 L349.219776,48.1922997 L349.219776,74.3944495 L343.016257,74.3944495 L343.016257,48.1922997 L334.6302,48.1922997 L334.6302,42.7244997 L357.603866,42.7244997 Z M370.813134,52.0649996 L366.794119,63.5719495 L374.720073,63.5719495 L370.813134,52.0649996 Z M278.802462,48.1922997 L272.828994,48.1922997 L272.828994,56.6221496 L278.802462,56.6221496 C281.443136,56.6221496 283.28158,54.9139496 283.28158,52.4062496 C283.28158,50.0839717 281.549689,48.2999292 279.033354,48.1969944 L278.802462,48.1922997 Z M381.0396,36.9134997 L381.0396,42.4943997 L375.526235,42.4943997 L375.526235,36.9134997 L381.0396,36.9134997 Z M365.991889,36.9134997 L365.991889,42.4943997 L360.476557,42.4943997 L360.476557,36.9134997 L365.991889,36.9134997 Z M336.814704,0.00389999997 C342.683374,0.00389999997 347.219743,3.30335999 348.466016,9.68407929 L348.529622,10.0288499 L342.21206,10.0288499 C341.635949,7.52309995 339.913514,5.58479996 336.812738,5.58479996 C335.088336,5.58479996 333.709995,6.15614996 332.791756,7.17989995 L332.652375,7.35169743 C332.629832,7.38054005 332.60763,7.40951499 332.585764,7.43866342 L332.458574,7.61596559 C332.438038,7.6459728 332.41783,7.67623588 332.397946,7.70679604 L332.282497,7.89405133 C332.263893,7.92596453 332.245605,7.95825717 332.227628,7.99097045 L332.123472,8.19262731 L332.123472,8.19262731 L332.026595,8.40635656 C331.995494,8.47983138 331.965572,8.55564779 331.936797,8.63413529 L331.853879,8.87794058 C331.840621,8.92002018 331.827642,8.96284994 331.814937,9.00647103 L331.741963,9.2780232 C331.730338,9.32497441 331.718979,9.37279935 331.707881,9.42153919 L331.644402,9.72528667 C331.634335,9.77785091 331.624521,9.83141243 331.614956,9.88601243 L331.560523,10.2264037 L331.560523,10.2264037 L331.511871,10.5936954 L331.511871,10.5936954 L331.4688,10.9898648 L331.4688,10.9898648 L331.431111,11.4168888 L331.431111,11.4168888 L331.398604,11.8767446 L331.398604,11.8767446 L331.371079,12.3714093 L331.371079,12.3714093 L331.338696,13.1829978 L331.338696,13.1829978 L331.322753,13.7733343 L331.322753,13.7733343 L331.306807,14.7376982 L331.306807,14.7376982 L331.299825,15.8026241 L331.299825,15.8026241 L331.30364,17.2958507 L331.30364,17.2958507 L331.311514,17.9846193 L331.311514,17.9846193 L331.32366,18.6278699 L331.32366,18.6278699 L331.350356,19.5120109 L331.350356,19.5120109 L331.387862,20.3055936 L331.387862,20.3055936 L331.436897,21.0157326 L331.436897,21.0157326 L331.476348,21.446314 L331.476348,21.446314 L331.521455,21.8450792 L331.521455,21.8450792 L331.572431,22.214136 L331.572431,22.214136 L331.62949,22.5555925 L331.62949,22.5555925 L331.692845,22.8715564 C331.715037,22.9728632 331.738313,23.0702726 331.762709,23.1641358 L331.839294,23.4354387 L331.839294,23.4354387 L331.922814,23.6875729 L331.922814,23.6875729 L332.013482,23.9226464 C332.044919,23.998395 332.077583,24.0716515 332.11151,24.1427672 L332.217112,24.3500431 C332.235355,24.3836358 332.253923,24.4167812 332.27282,24.4495231 L332.390181,24.6414842 C332.410411,24.6727879 332.430979,24.703776 332.451889,24.7344924 L332.58149,24.9158817 L332.58149,24.9158817 L332.719517,25.0928579 C332.743235,25.1221033 332.767313,25.1512526 332.791756,25.1803498 C333.709995,26.2060498 335.088336,26.7754498 336.812738,26.7754498 C339.819551,26.7754498 341.530293,24.9546763 342.156522,22.5577606 L342.21206,22.3313998 L348.529622,22.3313998 C347.381332,28.9399498 342.672163,32.3563498 336.814704,32.3582998 C333.251859,32.3582998 330.381134,31.1044498 328.082587,28.8268498 C325.766502,26.5299058 325.178137,23.8195119 325.030234,20.4409263 L325.004813,19.7066235 L325.004813,19.7066235 L324.990061,18.9513087 C324.988335,18.823641 324.986936,18.6950746 324.985806,18.5655978 L324.98178,17.7777209 L324.98178,17.7777209 L324.98178,14.5844789 L324.985806,13.796602 L324.985806,13.796602 L324.996279,13.0305724 C324.998718,12.9046905 325.001543,12.7796956 325.004813,12.6555763 L325.030234,11.9212734 C325.178137,8.54268786 325.766502,5.83229396 328.082587,3.53534997 C330.381134,1.25774999 333.251859,0.00389999997 336.814704,0.00389999997 Z M203.099868,0.00389999997 C208.968538,0.00389999997 213.616882,3.30335999 214.867083,9.68407929 L214.930795,10.0288499 L208.613233,10.0288499 C207.92308,7.52309995 206.316653,5.58479996 203.213911,5.58479996 C201.489509,5.58479996 200.111168,6.15614996 199.192929,7.17989995 L199.039643,7.35169743 L199.039643,7.35169743 L198.895692,7.52667043 L198.895692,7.52667043 L198.760827,7.70679604 L198.760827,7.70679604 L198.634796,7.89405133 C198.614514,7.92596453 198.594589,7.95825717 198.575016,7.99097045 L198.46177,8.19262731 L198.46177,8.19262731 L198.356735,8.40635656 L198.356735,8.40635656 L198.259659,8.63413529 L198.259659,8.63413529 L198.170293,8.87794058 C198.141762,8.96209978 198.114474,9.04925959 198.088388,9.13974952 L198.013692,9.42153919 C197.989968,9.51901888 197.967403,9.6201582 197.945957,9.72528667 L197.884931,10.052969 C197.875306,10.1096872 197.865949,10.167485 197.856856,10.2264037 L197.805427,10.5936954 L197.805427,10.5936954 L197.760082,10.9898648 L197.760082,10.9898648 L197.720572,11.4168888 L197.720572,11.4168888 L197.686647,11.8767446 L197.686647,11.8767446 L197.645683,12.6324128 L197.645683,12.6324128 L197.615878,13.4730735 L197.615878,13.4730735 L197.601791,14.0840272 L197.601791,14.0840272 L197.58871,15.0811704 L197.58871,15.0811704 L197.58499,16.5594563 L197.588834,17.2958507 L197.588834,17.2958507 L197.596816,17.9846193 L197.596816,17.9846193 L197.617135,18.9330848 L197.617135,18.9330848 L197.636632,19.5120109 L197.636632,19.5120109 L197.661202,20.0506889 L197.661202,20.0506889 L197.691111,20.5512268 L197.691111,20.5512268 L197.726626,21.0157326 C197.733027,21.0902646 197.739673,21.1633831 197.746569,21.2351321 L197.790994,21.6495419 L197.790994,21.6495419 L197.841691,22.0331894 L197.841691,22.0331894 L197.898927,22.3881826 L197.898927,22.3881826 L197.96297,22.7166292 C197.974226,22.7692753 197.985776,22.820903 197.997627,22.8715564 L198.072379,23.1641358 C198.176971,23.5395889 198.301491,23.8583044 198.448785,24.1427672 L198.563569,24.3500431 L198.563569,24.3500431 L198.687159,24.5465823 L198.687159,24.5465823 L198.819823,24.7344924 L198.819823,24.7344924 L198.961827,24.9158817 L198.961827,24.9158817 L199.113438,25.0928579 C199.139522,25.1221033 199.166017,25.1512526 199.192929,25.1803498 C200.111168,26.2060498 201.489509,26.7754498 203.213911,26.7754498 C206.222631,26.7754498 207.824346,24.9546763 208.547952,22.5577606 L208.613233,22.3313998 L214.930795,22.3313998 C213.782505,28.9399498 209.073336,32.3563498 203.099868,32.3582998 C199.653032,32.3582998 196.78034,31.1044498 194.48376,28.8268498 C192.252116,26.6136486 191.623562,24.0165952 191.447877,20.807807 L191.415823,20.0845806 L191.415823,20.0845806 L191.395873,19.340659 L191.395873,19.340659 L191.382508,18.1847577 L191.382508,18.1847577 L191.382508,14.1774421 L191.382508,14.1774421 L191.38956,13.4014358 C191.391316,13.273911 191.393401,13.1472831 191.395873,13.0215407 L191.415823,12.2776192 L191.415823,12.2776192 L191.447877,11.5543928 C191.623562,8.34560453 192.252116,5.74855121 194.48376,3.53534997 C196.782307,1.25774999 199.653032,0.00389999997 203.099868,0.00389999997 Z M308.437783,1.42108547e-14 C312.657356,1.42108547e-14 315.803915,1.06596749 318.499098,3.50262948 L318.776326,3.75959997 L314.755344,7.63424995 C312.802858,5.69789996 310.390269,5.46974996 308.207732,5.46974996 C304.874938,5.46974996 303.268511,7.29299995 303.268511,9.45749993 C303.268511,10.2550499 303.614572,11.0506499 304.188717,11.7350999 C304.819555,12.2570499 305.742832,12.6839645 306.864649,12.9272259 L307.17545,12.9889499 L310.966381,13.5583499 C313.828667,13.8872499 315.634555,14.6316353 316.892831,15.7966549 L317.053891,15.9509999 C318.778292,17.5460999 319.580522,19.9387499 319.580522,22.6726498 C319.580522,28.8248998 314.413217,32.3563498 307.747629,32.3544014 C302.95368,32.3544014 299.350753,31.3881478 296.306019,28.4143998 L296.030745,28.1384998 L300.051726,24.1507498 C302.118255,26.0870998 304.874938,26.7715498 307.747629,26.7715498 C311.424517,26.7715498 313.491046,25.4045998 313.491046,22.8988498 C313.491046,21.7600498 313.146952,20.8493999 312.456798,20.1649499 C311.991903,19.7023124 311.37384,19.4662405 310.356875,19.2705578 L309.858288,19.1824327 L309.858288,19.1824327 L309.586073,19.1392499 L305.795143,18.5698499 C303.03846,18.1135499 300.971931,17.3159999 299.59359,15.9490499 C297.985198,14.3558999 297.295044,12.3044999 297.295044,9.68369993 C297.295044,3.98774997 301.546076,1.42108547e-14 308.437783,1.42108547e-14 Z M407,0.345149998 L407,5.81294996 L392.068297,5.81294996 L392.068297,13.3301999 L404.70342,13.3301999 L404.70342,18.7999499 L392.068297,18.7999499 L392.068297,26.5453498 L407,26.5453498 L407,32.0131498 L385.862812,32.0131498 L385.862812,0.345149998 L407,0.345149998 Z M360.706608,0.345149998 L360.706608,13.3301999 L371.503288,13.3301999 L371.503288,0.345149998 L377.708773,0.345149998 L377.708773,32.0131498 L371.503288,32.0131498 L371.503288,18.7999499 L360.706608,18.7999499 L360.706608,32.0131498 L354.389047,32.0131498 L354.389047,0.345149998 L360.706608,0.345149998 Z M158.987048,0.345149998 L158.987048,5.81294996 L150.600991,5.81294996 L150.600991,32.0131498 L144.399439,32.0131498 L144.399439,5.81294996 L136.011416,5.81294996 L136.011416,0.345149998 L158.987048,0.345149998 Z M185.867653,0.345149998 L185.867653,5.81294996 L170.933983,5.81294996 L170.933983,13.3301999 L183.571072,13.3301999 L183.571072,18.7999499 L170.933983,18.7999499 L170.933983,26.5453498 L185.867653,26.5453498 L185.867653,32.0131498 L164.730464,32.0131498 L164.730464,0.345149998 L185.867653,0.345149998 Z M226.993739,0.345149998 L226.993739,13.3301999 L237.906427,13.3301999 L237.906427,0.345149998 L244.109946,0.345149998 L244.109946,32.0131498 L237.906427,32.0131498 L237.906427,18.7999499 L226.993739,18.7999499 L226.993739,32.0131498 L220.788254,32.0131498 L220.788254,0.345149998 L226.993739,0.345149998 Z M257.665274,0.345149998 L270.416405,19.7105999 L270.416405,0.345149998 L276.617958,0.345149998 L276.617958,32.0131498 L271.104593,32.0131498 L258.353461,12.5345999 L258.353461,32.0131498 L252.149942,32.0131498 L252.149942,0.345149998 L257.665274,0.345149998 Z M290.86344,0.345149998 L290.86344,32.0131498 L284.659921,32.0131498 L284.659921,0.345149998 L290.86344,0.345149998 Z" id="Shape"></path>
        </g>
    </g>
</svg>